# xmcd
#
# Track frame offsets:
#	150
#	12049
#	24593
#	35608
#	55879
#	68721
#	79083
#	93267
#	104270
#	114210
#	127889
#	138737
#
# Disc length: 2085 seconds
#
# Revision: 1
# Processed by: cddbd v1.5.2PL0 Copyright (c) Steve Scherf et al.
# Submitted via: audiograbber 1.83.01
#
DISCID=9208230c
DTITLE=Larry Sparks - I Just Want To Thank You Lord
DYEAR=2009
DGENRE=Bluegrass Gospel
TTITLE0=What Kind Of Man
TTITLE1=Bible Ben
TTITLE2=Little White Frame Church
TTITLE3=I Just Want To Thank You Lord
TTITLE4=What a Wonderful Savior Is He
TTITLE5=I Will Not Be Denied
TTITLE6=His Name Was Judas
TTITLE7=Going Home
TTITLE8=I Want To Be Like Jesus
TTITLE9=Better Farther On
TTITLE10=Soul Train
TTITLE11=A King For Me
EXTD=
EXTT0=
EXTT1=
EXTT2=
EXTT3=
EXTT4=
EXTT5=
EXTT6=
EXTT7=
EXTT8=
EXTT9=
EXTT10=
EXTT11=
PLAYORDER=
